<svg width="1280" height="800" viewBox="0 0 1280 800" fill="none" xmlns="http://www.w3.org/2000/svg">
  <rect width="1280" height="800" fill="#040906"/>
  <rect x="18" y="18" width="1244" height="764" rx="30" fill="#09120D" stroke="#1B2F24"/>
  <rect x="56" y="54" width="1168" height="126" rx="24" fill="url(#hero)"/>
  <rect x="84" y="86" width="390" height="24" rx="8" fill="#E7FFF0"/>
  <rect x="84" y="122" width="228" height="14" rx="6" fill="#A8C8B4"/>
  <rect x="920" y="88" width="132" height="40" rx="14" fill="#49E888"/>
  <rect x="1066" y="88" width="126" height="40" rx="14" fill="#0E1A13"/>
  <rect x="56" y="206" width="394" height="548" rx="24" fill="#0E1A13"/>
  <rect x="84" y="236" width="338" height="390" rx="18" fill="url(#poster)"/>
  <rect x="84" y="646" width="220" height="16" rx="6" fill="#E8FFF1"/>
  <rect x="84" y="672" width="120" height="12" rx="6" fill="#87A994"/>
  <rect x="214" y="672" width="50" height="12" rx="6" fill="#F1CB55"/>
  <rect x="484" y="206" width="740" height="548" rx="24" fill="#070E0A"/>
  <rect x="518" y="236" width="320" height="22" rx="7" fill="#152E22"/>
  <rect x="528" y="242" width="148" height="10" rx="4" fill="#A0F1C1"/>
  <rect x="858" y="236" width="98" height="22" rx="8" fill="#122019"/>
  <rect x="966" y="236" width="108" height="22" rx="8" fill="#122019"/>
  <rect x="1084" y="236" width="108" height="22" rx="8" fill="#122019"/>
  <rect x="518" y="282" width="670" height="16" rx="6" fill="#D8F0E0"/>
  <rect x="518" y="308" width="670" height="12" rx="6" fill="#749685"/>
  <rect x="518" y="332" width="610" height="12" rx="6" fill="#749685"/>
  <rect x="518" y="374" width="118" height="36" rx="12" fill="#48E788"/>
  <rect x="648" y="374" width="136" height="36" rx="12" fill="#122019"/>
  <rect x="518" y="438" width="670" height="2" fill="#1E3226"/>
  <rect x="518" y="466" width="210" height="18" rx="6" fill="#E3FFE9"/>
  <rect x="518" y="496" width="310" height="12" rx="6" fill="#7FA28F"/>
  <rect x="518" y="520" width="280" height="12" rx="6" fill="#7FA28F"/>
  <rect x="518" y="548" width="670" height="2" fill="#1E3226"/>
  <rect x="518" y="576" width="170" height="18" rx="6" fill="#E3FFE9"/>
  <rect x="518" y="606" width="200" height="12" rx="6" fill="#7FA28F"/>
  <rect x="734" y="604" width="454" height="120" rx="14" fill="#111F17"/>
  <rect x="750" y="620" width="130" height="10" rx="4" fill="#E4FFE9"/>
  <rect x="750" y="640" width="110" height="10" rx="4" fill="#84A796"/>
  <rect x="750" y="660" width="120" height="10" rx="4" fill="#84A796"/>
  <rect x="888" y="620" width="136" height="88" rx="10" fill="#152D22"/>
  <rect x="1036" y="620" width="136" height="88" rx="10" fill="#152D22"/>
  <defs>
    <linearGradient id="hero" x1="56" y1="54" x2="1224" y2="180" gradientUnits="userSpaceOnUse">
      <stop stop-color="#184230"/>
      <stop offset="0.5" stop-color="#0C2017"/>
      <stop offset="1" stop-color="#123625"/>
    </linearGradient>
    <linearGradient id="poster" x1="84" y1="236" x2="422" y2="626" gradientUnits="userSpaceOnUse">
      <stop stop-color="#1BA466"/>
      <stop offset="0.5" stop-color="#0F2F21"/>
      <stop offset="1" stop-color="#1A4768"/>
    </linearGradient>
  </defs>
</svg>
