<svg width="1280" height="800" viewBox="0 0 1280 800" fill="none" xmlns="http://www.w3.org/2000/svg">
  <rect width="1280" height="800" fill="#050A07"/>
  <rect x="20" y="20" width="1240" height="760" rx="28" fill="#0A120D" stroke="#1E3125"/>
  <rect x="52" y="50" width="1176" height="78" rx="18" fill="#0E1A13"/>
  <rect x="86" y="74" width="420" height="30" rx="12" fill="#111E17"/>
  <rect x="106" y="86" width="180" height="8" rx="4" fill="#7D9D8A"/>
  <rect x="302" y="86" width="120" height="8" rx="4" fill="#597968"/>
  <rect x="1018" y="72" width="178" height="34" rx="12" fill="#47E887"/>
  <rect x="78" y="166" width="262" height="564" rx="20" fill="#0E1A13"/>
  <rect x="102" y="196" width="216" height="42" rx="12" fill="#153124"/>
  <rect x="116" y="213" width="92" height="8" rx="4" fill="#9CF3BF"/>
  <rect x="102" y="260" width="216" height="42" rx="12" fill="#121F18"/>
  <rect x="102" y="314" width="216" height="42" rx="12" fill="#121F18"/>
  <rect x="102" y="368" width="216" height="42" rx="12" fill="#121F18"/>
  <rect x="102" y="422" width="216" height="42" rx="12" fill="#121F18"/>
  <rect x="102" y="476" width="216" height="42" rx="12" fill="#121F18"/>
  <rect x="102" y="530" width="216" height="42" rx="12" fill="#121F18"/>
  <rect x="102" y="584" width="216" height="42" rx="12" fill="#121F18"/>
  <rect x="372" y="166" width="836" height="564" rx="20" fill="#070E0A"/>
  <rect x="404" y="198" width="230" height="26" rx="8" fill="#1A2B20"/>
  <rect x="412" y="205" width="118" height="12" rx="4" fill="#E4FFE8"/>
  <rect x="930" y="198" width="98" height="30" rx="10" fill="#46E686"/>
  <rect x="1040" y="198" width="136" height="30" rx="10" fill="#121F18"/>
  <g opacity="0.95">
    <rect x="404" y="252" width="188" height="156" rx="14" fill="#101F17"/>
    <rect x="404" y="252" width="188" height="88" rx="14" fill="url(#poster1)"/>
    <rect x="418" y="354" width="112" height="10" rx="4" fill="#F1FFF4"/>
    <rect x="418" y="372" width="66" height="10" rx="4" fill="#8BAF9A"/>
    <rect x="494" y="372" width="28" height="10" rx="4" fill="#F4CD59"/>
  </g>
  <g opacity="0.95">
    <rect x="612" y="252" width="188" height="156" rx="14" fill="#101F17"/>
    <rect x="612" y="252" width="188" height="88" rx="14" fill="url(#poster2)"/>
    <rect x="626" y="354" width="120" height="10" rx="4" fill="#F1FFF4"/>
    <rect x="626" y="372" width="70" height="10" rx="4" fill="#8BAF9A"/>
    <rect x="706" y="372" width="24" height="10" rx="4" fill="#F4CD59"/>
  </g>
  <g opacity="0.95">
    <rect x="820" y="252" width="188" height="156" rx="14" fill="#101F17"/>
    <rect x="820" y="252" width="188" height="88" rx="14" fill="url(#poster3)"/>
    <rect x="834" y="354" width="98" height="10" rx="4" fill="#F1FFF4"/>
    <rect x="834" y="372" width="70" height="10" rx="4" fill="#8BAF9A"/>
    <rect x="914" y="372" width="26" height="10" rx="4" fill="#F4CD59"/>
  </g>
  <g opacity="0.95">
    <rect x="1028" y="252" width="148" height="156" rx="14" fill="#101F17"/>
    <rect x="1028" y="252" width="148" height="88" rx="14" fill="url(#poster4)"/>
    <rect x="1040" y="354" width="86" height="10" rx="4" fill="#F1FFF4"/>
    <rect x="1040" y="372" width="62" height="10" rx="4" fill="#8BAF9A"/>
    <rect x="1108" y="372" width="22" height="10" rx="4" fill="#F4CD59"/>
  </g>
  <rect x="404" y="436" width="772" height="24" rx="8" fill="#152D22"/>
  <rect x="414" y="443" width="136" height="10" rx="4" fill="#95F2BE"/>
  <rect x="404" y="482" width="188" height="216" rx="16" fill="#101F17"/>
  <rect x="612" y="482" width="188" height="216" rx="16" fill="#101F17"/>
  <rect x="820" y="482" width="188" height="216" rx="16" fill="#101F17"/>
  <rect x="1028" y="482" width="148" height="216" rx="16" fill="#101F17"/>
  <defs>
    <linearGradient id="poster1" x1="404" y1="252" x2="592" y2="340" gradientUnits="userSpaceOnUse">
      <stop stop-color="#1DAC6E"/>
      <stop offset="1" stop-color="#16462F"/>
    </linearGradient>
    <linearGradient id="poster2" x1="612" y1="252" x2="800" y2="340" gradientUnits="userSpaceOnUse">
      <stop stop-color="#E97147"/>
      <stop offset="1" stop-color="#582312"/>
    </linearGradient>
    <linearGradient id="poster3" x1="820" y1="252" x2="1008" y2="340" gradientUnits="userSpaceOnUse">
      <stop stop-color="#4FB6EF"/>
      <stop offset="1" stop-color="#1A415B"/>
    </linearGradient>
    <linearGradient id="poster4" x1="1028" y1="252" x2="1176" y2="340" gradientUnits="userSpaceOnUse">
      <stop stop-color="#9B65FF"/>
      <stop offset="1" stop-color="#3B2068"/>
    </linearGradient>
  </defs>
</svg>
