<svg width="1280" height="800" viewBox="0 0 1280 800" fill="none" xmlns="http://www.w3.org/2000/svg">
  <rect width="1280" height="800" fill="#040A06"/>
  <rect x="0.5" y="0.5" width="1279" height="799" stroke="#1C2F24"/>
  <rect x="0" y="0" width="1280" height="60" fill="#08110B"/>
  <rect x="22" y="20" width="140" height="20" rx="6" fill="#163223"/>
  <rect x="26" y="24" width="78" height="12" rx="4" fill="#8BD2A7"/>
  <rect x="20" y="96" width="84" height="684" rx="20" fill="#0A140E"/>
  <rect x="32" y="115" width="60" height="60" rx="16" fill="#45E685"/>
  <rect x="41" y="133" width="42" height="24" rx="6" fill="#0A160F"/>
  <rect x="32" y="200" width="60" height="60" rx="16" fill="#111F17"/>
  <rect x="32" y="285" width="60" height="60" rx="16" fill="#111F17"/>
  <rect x="130" y="96" width="1130" height="684" rx="24" fill="#060D09"/>
  <rect x="170" y="126" width="180" height="26" rx="8" fill="#1A2A20"/>
  <rect x="176" y="132" width="116" height="14" rx="4" fill="#DFFFEA"/>
  <rect x="1030" y="120" width="120" height="42" rx="12" fill="#45E685"/>
  <rect x="1170" y="120" width="70" height="42" rx="12" fill="#101B15"/>
  <rect x="170" y="188" width="260" height="22" rx="7" fill="#153124"/>
  <rect x="178" y="194" width="130" height="10" rx="4" fill="#9AF3BE"/>
  <g opacity="0.95">
    <rect x="170" y="226" width="114" height="174" rx="16" fill="#102018"/>
    <rect x="170" y="226" width="114" height="104" rx="16" fill="url(#grad1)"/>
    <rect x="170" y="412" width="80" height="10" rx="4" fill="#E8FFF1"/>
    <rect x="170" y="430" width="36" height="10" rx="4" fill="#85A996"/>
    <rect x="214" y="430" width="20" height="10" rx="4" fill="#F2CC4C"/>
  </g>
  <g opacity="0.95">
    <rect x="298" y="226" width="114" height="174" rx="16" fill="#102018"/>
    <rect x="298" y="226" width="114" height="104" rx="16" fill="url(#grad2)"/>
    <rect x="298" y="412" width="88" height="10" rx="4" fill="#E8FFF1"/>
    <rect x="298" y="430" width="35" height="10" rx="4" fill="#85A996"/>
    <rect x="341" y="430" width="22" height="10" rx="4" fill="#F2CC4C"/>
  </g>
  <g opacity="0.95">
    <rect x="426" y="226" width="114" height="174" rx="16" fill="#102018"/>
    <rect x="426" y="226" width="114" height="104" rx="16" fill="url(#grad3)"/>
    <rect x="426" y="412" width="78" height="10" rx="4" fill="#E8FFF1"/>
    <rect x="426" y="430" width="35" height="10" rx="4" fill="#85A996"/>
    <rect x="469" y="430" width="20" height="10" rx="4" fill="#F2CC4C"/>
  </g>
  <g opacity="0.95">
    <rect x="554" y="226" width="114" height="174" rx="16" fill="#102018"/>
    <rect x="554" y="226" width="114" height="104" rx="16" fill="url(#grad4)"/>
    <rect x="554" y="412" width="86" height="10" rx="4" fill="#E8FFF1"/>
    <rect x="554" y="430" width="35" height="10" rx="4" fill="#85A996"/>
    <rect x="597" y="430" width="21" height="10" rx="4" fill="#F2CC4C"/>
  </g>
  <g opacity="0.95">
    <rect x="682" y="226" width="114" height="174" rx="16" fill="#102018"/>
    <rect x="682" y="226" width="114" height="104" rx="16" fill="url(#grad5)"/>
    <rect x="682" y="412" width="82" height="10" rx="4" fill="#E8FFF1"/>
    <rect x="682" y="430" width="35" height="10" rx="4" fill="#85A996"/>
    <rect x="725" y="430" width="20" height="10" rx="4" fill="#F2CC4C"/>
  </g>
  <g opacity="0.95">
    <rect x="810" y="226" width="114" height="174" rx="16" fill="#102018"/>
    <rect x="810" y="226" width="114" height="104" rx="16" fill="url(#grad6)"/>
    <rect x="810" y="412" width="86" height="10" rx="4" fill="#E8FFF1"/>
    <rect x="810" y="430" width="35" height="10" rx="4" fill="#85A996"/>
    <rect x="853" y="430" width="22" height="10" rx="4" fill="#F2CC4C"/>
  </g>
  <rect x="170" y="474" width="320" height="22" rx="7" fill="#153124"/>
  <rect x="178" y="480" width="120" height="10" rx="4" fill="#9AF3BE"/>
  <rect x="170" y="516" width="114" height="174" rx="16" fill="#102018"/>
  <rect x="298" y="516" width="114" height="174" rx="16" fill="#102018"/>
  <rect x="426" y="516" width="114" height="174" rx="16" fill="#102018"/>
  <rect x="554" y="516" width="114" height="174" rx="16" fill="#102018"/>
  <rect x="682" y="516" width="114" height="174" rx="16" fill="#102018"/>
  <rect x="810" y="516" width="114" height="174" rx="16" fill="#102018"/>
  <rect x="938" y="516" width="114" height="174" rx="16" fill="#102018"/>
  <rect x="1066" y="516" width="114" height="174" rx="16" fill="#102018"/>
  <defs>
    <linearGradient id="grad1" x1="170" y1="226" x2="284" y2="330" gradientUnits="userSpaceOnUse">
      <stop stop-color="#1EA96A"/>
      <stop offset="1" stop-color="#0E3020"/>
    </linearGradient>
    <linearGradient id="grad2" x1="298" y1="226" x2="412" y2="330" gradientUnits="userSpaceOnUse">
      <stop stop-color="#E66138"/>
      <stop offset="1" stop-color="#561A0D"/>
    </linearGradient>
    <linearGradient id="grad3" x1="426" y1="226" x2="540" y2="330" gradientUnits="userSpaceOnUse">
      <stop stop-color="#EFB940"/>
      <stop offset="1" stop-color="#5E3A0A"/>
    </linearGradient>
    <linearGradient id="grad4" x1="554" y1="226" x2="668" y2="330" gradientUnits="userSpaceOnUse">
      <stop stop-color="#8A7CFA"/>
      <stop offset="1" stop-color="#2D2756"/>
    </linearGradient>
    <linearGradient id="grad5" x1="682" y1="226" x2="796" y2="330" gradientUnits="userSpaceOnUse">
      <stop stop-color="#49B2F2"/>
      <stop offset="1" stop-color="#164364"/>
    </linearGradient>
    <linearGradient id="grad6" x1="810" y1="226" x2="924" y2="330" gradientUnits="userSpaceOnUse">
      <stop stop-color="#9A59FF"/>
      <stop offset="1" stop-color="#34155F"/>
    </linearGradient>
  </defs>
</svg>
